<?xml version="1.0" encoding="UTF-8"?>
<svg id="uuid-b9b47223-a389-479c-a618-707ebf538d70" data-name="Layer 1" xmlns="http://www.w3.org/2000/svg" width="1049.06" height="520.12" viewBox="0 0 1049.06 520.12">
  <defs>
    <style>
      .uuid-08541c9b-3328-4884-9666-be3b33519e36 {
        letter-spacing: 0em;
      }

      .uuid-8830bc31-9905-45b9-ba14-d485df95be9c {
        stroke: #a7a9ac;
      }

      .uuid-8830bc31-9905-45b9-ba14-d485df95be9c, .uuid-e1fa568a-f0c7-43c7-8cf9-909f53c8f198, .uuid-2f509cf0-0841-4df5-8bb5-cfdc8a02c9d7, .uuid-4d994b16-8b08-4120-9a51-099996a740e1, .uuid-d00f5428-3bcf-45d6-a6fc-b92d2b950f9c, .uuid-5650bef9-92a9-4897-83f6-137a6f86247d, .uuid-f3f22255-2999-4d98-abc3-4ab5612b6450 {
        stroke-miterlimit: 10;
      }

      .uuid-8830bc31-9905-45b9-ba14-d485df95be9c, .uuid-4d994b16-8b08-4120-9a51-099996a740e1, .uuid-f3f22255-2999-4d98-abc3-4ab5612b6450 {
        fill: none;
      }

      .uuid-5cb5b1e9-a54a-4753-aaf4-fb59cd78457d {
        letter-spacing: .01em;
      }

      .uuid-5cb5b1e9-a54a-4753-aaf4-fb59cd78457d, .uuid-8fd4f906-ff3a-433f-a826-2aabe6d22481, .uuid-e3653a48-21bf-45ed-b446-5f6911799b40, .uuid-4995b930-4190-4643-a6b9-88720094b0a4 {
        fill: #231f20;
      }

      .uuid-85bb7359-1e1d-4256-95ac-59d80fcb1b63 {
        fill: #3f4347;
      }

      .uuid-8fd4f906-ff3a-433f-a826-2aabe6d22481 {
        letter-spacing: .03em;
      }

      .uuid-a7f88a2a-e5d4-40cb-92e2-0c33b3b55283, .uuid-5e1e3601-7bf2-41bc-9876-e2c79e479514 {
        fill: #6d6e71;
      }

      .uuid-e1fa568a-f0c7-43c7-8cf9-909f53c8f198 {
        fill: #2d245d;
      }

      .uuid-e1fa568a-f0c7-43c7-8cf9-909f53c8f198, .uuid-2f509cf0-0841-4df5-8bb5-cfdc8a02c9d7, .uuid-5650bef9-92a9-4897-83f6-137a6f86247d, .uuid-f3f22255-2999-4d98-abc3-4ab5612b6450 {
        stroke: #231f20;
      }

      .uuid-9107dc83-030c-4a8e-9da4-71d30fbfb5d8 {
        fill: #f15845;
      }

      .uuid-3412062f-67ca-4ff2-a249-d1df39036d7d {
        fill: #939598;
      }

      .uuid-3412062f-67ca-4ff2-a249-d1df39036d7d, .uuid-22ae28e3-b260-4266-8c4f-2f7f866c0cd6, .uuid-0dfdc62a-4706-419e-8c45-f75d30d1bf2b, .uuid-4995b930-4190-4643-a6b9-88720094b0a4 {
        font-family: AdobeClean-Regular, 'Adobe Clean';
        font-size: 31px;
      }

      .uuid-2f509cf0-0841-4df5-8bb5-cfdc8a02c9d7 {
        fill: #d1d3d4;
      }

      .uuid-22ae28e3-b260-4266-8c4f-2f7f866c0cd6, .uuid-d0b9c0fd-43ac-48da-b6cd-0d4204cb69e6 {
        fill: #fff;
      }

      .uuid-5e1e3601-7bf2-41bc-9876-e2c79e479514, .uuid-8d7b1ebd-b7b6-4097-90be-422a799a2420 {
        letter-spacing: 0em;
      }

      .uuid-4d994b16-8b08-4120-9a51-099996a740e1 {
        stroke: #808285;
        stroke-width: 1.94px;
      }

      .uuid-35f179dd-e1ef-4f81-ad3c-7c5710aa3895 {
        letter-spacing: 0em;
      }

      .uuid-d00f5428-3bcf-45d6-a6fc-b92d2b950f9c {
        fill: #f1f2f2;
        stroke: #939598;
        stroke-width: 1px;
      }

      .uuid-5650bef9-92a9-4897-83f6-137a6f86247d {
        fill: #a7a9ac;
      }

      .uuid-123f222c-186e-4dfa-b3a5-d4e65ac829bf {
        letter-spacing: 0em;
      }

      .uuid-db80efe6-a35d-49b6-813f-3351de938a65 {
        letter-spacing: -.1em;
      }

      .uuid-3fe21597-4ee8-4b34-816f-ff11d579463a {
        letter-spacing: -.08em;
      }

      .uuid-2985f62e-b8bc-4c41-b0df-179583d86247 {
        letter-spacing: -.08em;
      }

      .uuid-ee71831d-fe64-4f83-b7e9-28bf7f51a2d1 {
        letter-spacing: -.02em;
      }

      .uuid-8fb7b543-6915-4bc6-bf24-6fe79e67ee87 {
        letter-spacing: -.02em;
      }

      .uuid-f1e12947-aa48-4007-b2e1-90dbad93181b {
        letter-spacing: -.02em;
      }

      .uuid-b5603961-65ac-404a-8b53-08cebb7d8198 {
        letter-spacing: -.05em;
      }

      .uuid-075d4710-c095-45cf-a2db-1158aad3dd51 {
        letter-spacing: -.05em;
      }

      .uuid-8080cac2-4a26-421c-85d9-d38349cebd68 {
        letter-spacing: -.04em;
      }

      .uuid-b4318ce0-6531-4b69-92b1-2b056169f9fb {
        letter-spacing: 0em;
      }

      .uuid-dc0b4d0c-541e-47ee-a87b-025e93937f13 {
        fill: #972d2c;
      }

      .uuid-0e44686d-abc6-421d-baf1-4015f51080c5 {
        letter-spacing: 0em;
      }

      .uuid-e6c82bd0-21f1-496f-86ec-c4e63172bfc6 {
        letter-spacing: 0em;
      }

      .uuid-2c278559-cac1-4d54-8a4b-afba08b814b8 {
        letter-spacing: 0em;
      }

      .uuid-979c5ff8-68e4-4a57-abaa-4e3c428aa9ea {
        letter-spacing: 0em;
      }

      .uuid-8797b855-fca0-4cd7-a696-6749619fcc72 {
        letter-spacing: -.01em;
      }

      .uuid-973aae19-42ee-4e1c-9fd3-6ce14c42bd56 {
        letter-spacing: -.01em;
      }

      .uuid-d185df12-0c5d-4119-bdfe-26e42fb7f4af {
        letter-spacing: 0em;
      }

      .uuid-cdc16c71-f30f-46a5-a4bb-a04205ccee2a {
        letter-spacing: 0em;
      }

      .uuid-8569533c-10e2-4ec2-a39b-aad2187dd8f7 {
        letter-spacing: 0em;
      }

      .uuid-9063a18a-a65e-4d8e-8bd8-cd9b64ca24aa {
        letter-spacing: 0em;
      }

      .uuid-b6eaa439-8b36-4c7c-9922-25916f6726c1 {
        letter-spacing: 0em;
      }

      .uuid-f3f22255-2999-4d98-abc3-4ab5612b6450 {
        stroke-width: 3px;
      }

      .uuid-00d7e439-7b04-4ff4-aacb-bff1fbf3df4a {
        letter-spacing: 0em;
      }

      .uuid-f61bfc2c-c2ad-4bf7-8f34-37028edbbf45 {
        letter-spacing: .02em;
      }

      .uuid-f2ff9b7c-917c-4b5e-84bb-3d92f046712c {
        letter-spacing: .02em;
      }

      .uuid-18c9dc43-4ee0-4994-9497-2843e2d43f4b {
        letter-spacing: .02em;
      }

      .uuid-0346dd89-15e1-4652-af9f-477b65086125 {
        letter-spacing: .02em;
      }

      .uuid-cfd972d6-8591-48b5-abbd-2ce4e86c99de {
        letter-spacing: .02em;
      }

      .uuid-dc642176-4cf0-439c-8476-e979d6044c86 {
        letter-spacing: .02em;
      }

      .uuid-fd140086-b529-49a2-8994-6b05fac479f0 {
        letter-spacing: .01em;
      }

      .uuid-a7fb058d-e152-4cc1-99b7-373744ef01b6 {
        letter-spacing: .02em;
      }

      .uuid-fcc70eed-ec64-4231-ace2-f8a673eb4676 {
        letter-spacing: .05em;
      }

      .uuid-7f9d5c59-f94e-49b7-9bf8-fa1ef20ff7db {
        letter-spacing: .05em;
      }

      .uuid-8b329989-d515-4799-a5b7-ad2be31f4400 {
        letter-spacing: .03em;
      }

      .uuid-2b5295f4-7198-4a6b-b15b-11dba5add4fa {
        letter-spacing: .03em;
      }

      .uuid-cb519641-a1bc-43c4-a0de-c6b5ee0805d5 {
        letter-spacing: .03em;
      }

      .uuid-1db1866d-3a8e-424b-93fa-35a46b602b9c {
        letter-spacing: .03em;
      }

      .uuid-e62a4fbd-eb58-4515-a518-eb60be00df6f {
        letter-spacing: 0em;
      }

      .uuid-1cb71caf-cbc9-4115-a320-30fd96cacc7d {
        fill: #e8e8e8;
      }

      .uuid-2ec88527-00fc-4aea-9769-f4be8728998c {
        letter-spacing: 0em;
      }

      .uuid-7082199d-c3a9-4b75-9b43-8dd309cdef5a {
        letter-spacing: 0em;
      }

      .uuid-74f2214f-777d-4958-bad2-f2b796474649 {
        letter-spacing: 0em;
      }

      .uuid-b213822c-9283-439f-bce9-15b929265196 {
        letter-spacing: 0em;
      }

      .uuid-086344cf-8226-435b-973e-35ff25b2534f {
        letter-spacing: 0em;
      }

      .uuid-6de61132-6cef-4da7-8007-4a5b2d24ba09 {
        letter-spacing: .01em;
      }

      .uuid-5b467da6-1989-4a9b-8baf-2c581d218e4c {
        letter-spacing: .01em;
      }

      .uuid-8f5f63a5-2a6f-46e4-8905-94302a86106e {
        letter-spacing: .01em;
      }

      .uuid-6314f455-4e7b-4a31-8ab9-659dc64f1b8c {
        fill: #f6873b;
      }

      .uuid-2ad294e1-af62-46dd-a033-b1c0e941a3bc {
        letter-spacing: 0em;
      }

      .uuid-7bc40aba-b0ea-430a-b444-34d46986144b {
        letter-spacing: 0em;
      }

      .uuid-608be348-e677-4a64-a520-e84decce0277 {
        letter-spacing: 0em;
      }

      .uuid-75c44db3-5f01-4755-9bc0-a65a90a5fa6b {
        letter-spacing: 0em;
      }

      .uuid-27f9ca35-e41f-4a4b-b18f-691054dc328f {
        letter-spacing: 0em;
      }

      .uuid-62231dac-2538-42b1-b675-a05b7ebc2f65 {
        letter-spacing: 0em;
      }
    </style>
  </defs>
  <rect class="uuid-d00f5428-3bcf-45d6-a6fc-b92d2b950f9c" x=".5" y="200.05" width="1046.57" height="319.57"/>
  <text class="uuid-4995b930-4190-4643-a6b9-88720094b0a4" transform="translate(40.8 38.27)"><tspan class="uuid-35f179dd-e1ef-4f81-ad3c-7c5710aa3895" x="0" y="0">A</tspan><tspan class="uuid-2b5295f4-7198-4a6b-b15b-11dba5add4fa" x="18.26" y="0">c</tspan><tspan class="uuid-75c44db3-5f01-4755-9bc0-a65a90a5fa6b" x="32.18" y="0">tiv</tspan><tspan class="uuid-08541c9b-3328-4884-9666-be3b33519e36" x="63.05" y="0">e p</tspan><tspan class="uuid-8d7b1ebd-b7b6-4097-90be-422a799a2420" x="101.43" y="0">r</tspan><tspan class="uuid-08541c9b-3328-4884-9666-be3b33519e36" x="111.53" y="0">ofil</tspan><tspan class="uuid-b213822c-9283-439f-bce9-15b929265196" x="150.47" y="0">e</tspan><tspan x="165.54" y="0">:</tspan></text>
  <g>
    <rect class="uuid-2f509cf0-0841-4df5-8bb5-cfdc8a02c9d7" x="223.95" y="6.12" width="706.6" height="45.9"/>
    <polyline class="uuid-f3f22255-2999-4d98-abc3-4ab5612b6450" points="890.13 21.9 902.31 36.25 914.49 21.9"/>
    <text class="uuid-4995b930-4190-4643-a6b9-88720094b0a4" transform="translate(236.58 39.58)"><tspan class="uuid-e62a4fbd-eb58-4515-a518-eb60be00df6f" x="0" y="0">L</tspan><tspan class="uuid-27f9ca35-e41f-4a4b-b18f-691054dc328f" x="15.03" y="0">o</tspan><tspan class="uuid-a7fb058d-e152-4cc1-99b7-373744ef01b6" x="31.62" y="0">c</tspan><tspan x="45.13" y="0">al si</tspan><tspan class="uuid-f1e12947-aa48-4007-b2e1-90dbad93181b" x="93.15" y="0">n</tspan><tspan class="uuid-00d7e439-7b04-4ff4-aacb-bff1fbf3df4a" x="109.15" y="0">g</tspan><tspan x="124.25" y="0">l</tspan><tspan class="uuid-18c9dc43-4ee0-4994-9497-2843e2d43f4b" x="131.72" y="0">e</tspan><tspan class="uuid-dc642176-4cf0-439c-8476-e979d6044c86" x="147.28" y="0">-</tspan><tspan x="157.41" y="0">co</tspan><tspan class="uuid-27f9ca35-e41f-4a4b-b18f-691054dc328f" x="186.77" y="0">r</tspan><tspan x="196.88" y="0">e</tspan></text>
  </g>
  <text class="uuid-4995b930-4190-4643-a6b9-88720094b0a4" transform="translate(48.09 313.66)"><tspan class="uuid-979c5ff8-68e4-4a57-abaa-4e3c428aa9ea" x="0" y="0">E</tspan><tspan class="uuid-e6c82bd0-21f1-496f-86ec-c4e63172bfc6" x="15.65" y="0">n</tspan><tspan x="32.08" y="0">v </tspan><tspan class="uuid-0e44686d-abc6-421d-baf1-4015f51080c5" x="53.41" y="0">v</tspan><tspan x="67.39" y="0">a</tspan><tspan class="uuid-62231dac-2538-42b1-b675-a05b7ebc2f65" x="82.09" y="0">r</tspan><tspan class="uuid-b213822c-9283-439f-bce9-15b929265196" x="92.16" y="0">i</tspan><tspan class="uuid-123f222c-186e-4dfa-b3a5-d4e65ac829bf" x="99.26" y="0">abl</tspan><tspan class="uuid-cfd972d6-8591-48b5-abbd-2ce4e86c99de" x="137.7" y="0">e</tspan><tspan class="uuid-dc642176-4cf0-439c-8476-e979d6044c86" x="153.2" y="0">s</tspan><tspan x="165.44" y="0">:</tspan></text>
  <rect class="uuid-2f509cf0-0841-4df5-8bb5-cfdc8a02c9d7" x="231.15" y="281.52" width="247.85" height="45.9"/>
  <text class="uuid-3412062f-67ca-4ff2-a249-d1df39036d7d" transform="translate(243.78 314.97)"><tspan x="0" y="0">K</tspan><tspan class="uuid-f61bfc2c-c2ad-4bf7-8f34-37028edbbf45" x="17.36" y="0">E</tspan><tspan x="33.91" y="0">Y1=</tspan><tspan class="uuid-b4318ce0-6531-4b69-92b1-2b056169f9fb" x="76.85" y="0">v</tspan><tspan class="uuid-123f222c-186e-4dfa-b3a5-d4e65ac829bf" x="90.83" y="0">a</tspan><tspan class="uuid-8569533c-10e2-4ec2-a39b-aad2187dd8f7" x="105.52" y="0">l</tspan><tspan class="uuid-08541c9b-3328-4884-9666-be3b33519e36" x="112.75" y="0">ue1</tspan></text>
  <text class="uuid-4995b930-4190-4643-a6b9-88720094b0a4" transform="translate(111.52 369.13)"><tspan class="uuid-8797b855-fca0-4cd7-a696-6749619fcc72" x="0" y="0">P</tspan><tspan class="uuid-27f9ca35-e41f-4a4b-b18f-691054dc328f" x="16.43" y="0">r</tspan><tspan class="uuid-18c9dc43-4ee0-4994-9497-2843e2d43f4b" x="26.54" y="0">e</tspan><tspan class="uuid-dc642176-4cf0-439c-8476-e979d6044c86" x="42.1" y="0">-</tspan><tspan class="uuid-8f5f63a5-2a6f-46e4-8905-94302a86106e" x="52.23" y="0">e</tspan><tspan x="67.55" y="0">x</tspan><tspan class="uuid-2ad294e1-af62-46dd-a033-b1c0e941a3bc" x="80.82" y="0">e</tspan><tspan x="96.04" y="0">c</tspan><tspan x="-39.03" y="37.2">comman</tspan><tspan class="uuid-6de61132-6cef-4da7-8007-4a5b2d24ba09" x="73.19" y="37.2">d</tspan><tspan class="uuid-dc642176-4cf0-439c-8476-e979d6044c86" x="89.77" y="37.2">s</tspan><tspan x="102.02" y="37.2">:</tspan></text>
  <rect class="uuid-2f509cf0-0841-4df5-8bb5-cfdc8a02c9d7" x="232.45" y="350.37" width="807.29" height="163.84"/>
  <text class="uuid-3412062f-67ca-4ff2-a249-d1df39036d7d" transform="translate(245.07 383.82)"><tspan class="uuid-e62a4fbd-eb58-4515-a518-eb60be00df6f" x="0" y="0">s</tspan><tspan class="uuid-08541c9b-3328-4884-9666-be3b33519e36" x="11.9" y="0">ou</tspan><tspan class="uuid-27f9ca35-e41f-4a4b-b18f-691054dc328f" x="44.61" y="0">r</tspan><tspan x="54.71" y="0">ce /</tspan><tspan class="uuid-7bc40aba-b0ea-430a-b444-34d46986144b" x="100.72" y="0">p</tspan><tspan class="uuid-cdc16c71-f30f-46a5-a4bb-a04205ccee2a" x="117.27" y="0">a</tspan><tspan class="uuid-75c44db3-5f01-4755-9bc0-a65a90a5fa6b" x="131.75" y="0">t</tspan><tspan x="141.05" y="0">h/to/</tspan><tspan class="uuid-e62a4fbd-eb58-4515-a518-eb60be00df6f" x="204.85" y="0">s</tspan><tspan class="uuid-5b467da6-1989-4a9b-8baf-2c581d218e4c" x="216.75" y="0">e</tspan><tspan x="232.06" y="0">tu</tspan><tspan class="uuid-d185df12-0c5d-4119-bdfe-26e42fb7f4af" x="257.51" y="0">p</tspan><tspan class="uuid-f2ff9b7c-917c-4b5e-84bb-3d92f046712c" x="273.51" y="0">.</tspan><tspan class="uuid-979c5ff8-68e4-4a57-abaa-4e3c428aa9ea" x="279.58" y="0">s</tspan><tspan class="uuid-123f222c-186e-4dfa-b3a5-d4e65ac829bf" x="291.18" y="0">h</tspan><tspan class="uuid-5b467da6-1989-4a9b-8baf-2c581d218e4c" x="0" y="37.2">e</tspan><tspan class="uuid-7082199d-c3a9-4b75-9b43-8dd309cdef5a" x="15.31" y="37.2">x</tspan><tspan class="uuid-27f9ca35-e41f-4a4b-b18f-691054dc328f" x="28.74" y="37.2">p</tspan><tspan x="45.26" y="37.2">o</tspan><tspan class="uuid-7f9d5c59-f94e-49b7-9bf8-fa1ef20ff7db" x="61.6" y="37.2">r</tspan><tspan x="72.91" y="37.2">t </tspan><tspan class="uuid-075d4710-c095-45cf-a2db-1158aad3dd51" x="89.15" y="37.2">P</tspan><tspan class="uuid-2985f62e-b8bc-4c41-b0df-179583d86247" x="104.38" y="37.2">A</tspan><tspan x="120.19" y="37.2">TH=/</tspan><tspan class="uuid-979c5ff8-68e4-4a57-abaa-4e3c428aa9ea" x="184.54" y="37.2">c</tspan><tspan class="uuid-8f5f63a5-2a6f-46e4-8905-94302a86106e" x="197.44" y="37.2">u</tspan><tspan class="uuid-27f9ca35-e41f-4a4b-b18f-691054dc328f" x="214.18" y="37.2">s</tspan><tspan x="226.14" y="37.2">tom/</tspan><tspan class="uuid-2ad294e1-af62-46dd-a033-b1c0e941a3bc" x="288.23" y="37.2">p</tspan><tspan class="uuid-9063a18a-a65e-4d8e-8bd8-cd9b64ca24aa" x="304.79" y="37.2">a</tspan><tspan class="uuid-75c44db3-5f01-4755-9bc0-a65a90a5fa6b" x="319.26" y="37.2">t</tspan><tspan x="328.56" y="37.2">h:$</tspan><tspan class="uuid-b5603961-65ac-404a-8b53-08cebb7d8198" x="367.19" y="37.2">P</tspan><tspan class="uuid-3fe21597-4ee8-4b34-816f-ff11d579463a" x="382.41" y="37.2">A</tspan><tspan x="398.22" y="37.2">TH</tspan></text>
  <g>
    <rect class="uuid-e1fa568a-f0c7-43c7-8cf9-909f53c8f198" x="941.13" y="6.12" width="48.29" height="45.9"/>
    <path class="uuid-d0b9c0fd-43ac-48da-b6cd-0d4204cb69e6" d="M967.07,17.58c.18,0,.27.09.27.36v9.13h8.81c.23,0,.27.09.27.36v3.22c0,.27-.09.36-.32.36h-8.76v9.26c0,.23-.09.27-.32.27h-3.5c-.23,0-.27-.09-.27-.27v-9.26h-8.76c-.23,0-.36-.09-.36-.36v-3.31c0-.18.14-.27.32-.27h8.81v-9.22c0-.18.09-.27.27-.27h3.54Z"/>
  </g>
  <rect class="uuid-e1fa568a-f0c7-43c7-8cf9-909f53c8f198" x="999.59" y="6.12" width="48.29" height="45.9"/>
  <text class="uuid-4995b930-4190-4643-a6b9-88720094b0a4" transform="translate(56.7 158.76)"><tspan class="uuid-b4318ce0-6531-4b69-92b1-2b056169f9fb" x="0" y="0">C</tspan><tspan class="uuid-8569533c-10e2-4ec2-a39b-aad2187dd8f7" x="16.9" y="0">l</tspan><tspan class="uuid-5b467da6-1989-4a9b-8baf-2c581d218e4c" x="24.12" y="0">u</tspan><tspan class="uuid-27f9ca35-e41f-4a4b-b18f-691054dc328f" x="40.86" y="0">s</tspan><tspan x="52.82" y="0">ter </tspan><tspan class="uuid-0346dd89-15e1-4652-af9f-477b65086125" x="93.87" y="0">t</tspan><tspan class="uuid-74f2214f-777d-4958-bad2-f2b796474649" x="103.66" y="0">y</tspan><tspan class="uuid-8d7b1ebd-b7b6-4097-90be-422a799a2420" x="118.05" y="0">p</tspan><tspan class="uuid-086344cf-8226-435b-973e-35ff25b2534f" x="134.57" y="0">e</tspan><tspan class="uuid-123f222c-186e-4dfa-b3a5-d4e65ac829bf" x="149.63" y="0">:</tspan></text>
  <g>
    <rect class="uuid-2f509cf0-0841-4df5-8bb5-cfdc8a02c9d7" x="225.09" y="126.62" width="169.67" height="45.9"/>
    <polyline class="uuid-f3f22255-2999-4d98-abc3-4ab5612b6450" points="354.34 142.39 366.52 156.74 378.7 142.39"/>
    <text class="uuid-4995b930-4190-4643-a6b9-88720094b0a4" transform="translate(237.72 160.07)"><tspan x="0" y="0">l</tspan><tspan class="uuid-8d7b1ebd-b7b6-4097-90be-422a799a2420" x="7.47" y="0">o</tspan><tspan class="uuid-a7fb058d-e152-4cc1-99b7-373744ef01b6" x="24.06" y="0">c</tspan><tspan x="37.57" y="0">al</tspan></text>
  </g>
  <g>
    <text class="uuid-4995b930-4190-4643-a6b9-88720094b0a4" transform="translate(6.05 239.63)"><tspan class="uuid-8fb7b543-6915-4bc6-bf24-6fe79e67ee87" x="0" y="0">P</tspan><tspan class="uuid-979c5ff8-68e4-4a57-abaa-4e3c428aa9ea" x="16.12" y="0">a</tspan><tspan class="uuid-e62a4fbd-eb58-4515-a518-eb60be00df6f" x="30.69" y="0">c</tspan><tspan class="uuid-dc642176-4cf0-439c-8476-e979d6044c86" x="43.9" y="0">k</tspan><tspan class="uuid-ee71831d-fe64-4f83-b7e9-28bf7f51a2d1" x="58.84" y="0">a</tspan><tspan x="72.85" y="0">ge ma</tspan><tspan class="uuid-f1e12947-aa48-4007-b2e1-90dbad93181b" x="150.63" y="0">n</tspan><tspan x="166.62" y="0">ge</tspan><tspan class="uuid-cb519641-a1bc-43c4-a0de-c6b5ee0805d5" x="196.75" y="0">r</tspan><tspan x="207.48" y="0">:</tspan></text>
    <g>
      <rect class="uuid-2f509cf0-0841-4df5-8bb5-cfdc8a02c9d7" x="232.29" y="207.48" width="133.78" height="45.9"/>
      <polyline class="uuid-f3f22255-2999-4d98-abc3-4ab5612b6450" points="325.65 223.26 337.83 237.61 350.01 223.26"/>
      <text class="uuid-4995b930-4190-4643-a6b9-88720094b0a4" transform="translate(244.91 240.94)"><tspan class="uuid-8569533c-10e2-4ec2-a39b-aad2187dd8f7" x="0" y="0">a</tspan><tspan class="uuid-608be348-e677-4a64-a520-e84decce0277" x="14.45" y="0">u</tspan><tspan x="31.12" y="0">to</tspan></text>
    </g>
  </g>
  <g>
    <text class="uuid-4995b930-4190-4643-a6b9-88720094b0a4" transform="translate(401.14 239.63)"><tspan class="uuid-1db1866d-3a8e-424b-93fa-35a46b602b9c" x="0" y="0">P</tspan><tspan class="uuid-8b329989-d515-4799-a5b7-ad2be31f4400" x="17.73" y="0">y</tspan><tspan class="uuid-75c44db3-5f01-4755-9bc0-a65a90a5fa6b" x="33.04" y="0">t</tspan><tspan x="42.34" y="0">hon </tspan><tspan class="uuid-5b467da6-1989-4a9b-8baf-2c581d218e4c" x="99.04" y="0">e</tspan><tspan class="uuid-123f222c-186e-4dfa-b3a5-d4e65ac829bf" x="114.36" y="0">x</tspan><tspan class="uuid-2ad294e1-af62-46dd-a033-b1c0e941a3bc" x="127.62" y="0">e</tspan><tspan class="uuid-979c5ff8-68e4-4a57-abaa-4e3c428aa9ea" x="142.84" y="0">c</tspan><tspan class="uuid-608be348-e677-4a64-a520-e84decce0277" x="155.74" y="0">u</tspan><tspan class="uuid-fd140086-b529-49a2-8994-6b05fac479f0" x="172.42" y="0">t</tspan><tspan x="181.9" y="0">abl</tspan><tspan class="uuid-b213822c-9283-439f-bce9-15b929265196" x="220.34" y="0">e</tspan><tspan x="235.41" y="0">:</tspan></text>
    <g>
      <rect class="uuid-2f509cf0-0841-4df5-8bb5-cfdc8a02c9d7" x="654.2" y="207.48" width="143.54" height="45.9"/>
      <text class="uuid-4995b930-4190-4643-a6b9-88720094b0a4" transform="translate(666.83 240.94)"><tspan class="uuid-e62a4fbd-eb58-4515-a518-eb60be00df6f" x="0" y="0">p</tspan><tspan class="uuid-8b329989-d515-4799-a5b7-ad2be31f4400" x="16.46" y="0">y</tspan><tspan class="uuid-62231dac-2538-42b1-b675-a05b7ebc2f65" x="31.77" y="0">t</tspan><tspan class="uuid-123f222c-186e-4dfa-b3a5-d4e65ac829bf" x="41.07" y="0">hon</tspan></text>
    </g>
  </g>
  <text class="uuid-4995b930-4190-4643-a6b9-88720094b0a4" transform="translate(9.68 98.07)"><tspan class="uuid-979c5ff8-68e4-4a57-abaa-4e3c428aa9ea" x="0" y="0">C</tspan><tspan class="uuid-08541c9b-3328-4884-9666-be3b33519e36" x="16.96" y="0">on</tspan><tspan class="uuid-973aae19-42ee-4e1c-9fd3-6ce14c42bd56" x="49.88" y="0">fi</tspan><tspan class="uuid-08541c9b-3328-4884-9666-be3b33519e36" x="64.63" y="0">g filenam</tspan><tspan class="uuid-b213822c-9283-439f-bce9-15b929265196" x="181.6" y="0">e</tspan><tspan x="196.66" y="0">:</tspan></text>
  <g>
    <rect class="uuid-2f509cf0-0841-4df5-8bb5-cfdc8a02c9d7" x="223.95" y="65.93" width="233.22" height="45.9"/>
    <text class="uuid-4995b930-4190-4643-a6b9-88720094b0a4" transform="translate(244.37 99.38)"><tspan class="uuid-e62a4fbd-eb58-4515-a518-eb60be00df6f" x="0" y="0">c</tspan><tspan class="uuid-b6eaa439-8b36-4c7c-9922-25916f6726c1" x="13.21" y="0">l</tspan><tspan class="uuid-5b467da6-1989-4a9b-8baf-2c581d218e4c" x="20.43" y="0">u</tspan><tspan class="uuid-8d7b1ebd-b7b6-4097-90be-422a799a2420" x="37.17" y="0">s</tspan><tspan class="uuid-b213822c-9283-439f-bce9-15b929265196" x="49.13" y="0">t</tspan><tspan class="uuid-62231dac-2538-42b1-b675-a05b7ebc2f65" x="58.34" y="0">r</tspan><tspan class="uuid-fd140086-b529-49a2-8994-6b05fac479f0" x="68.42" y="0">i</tspan><tspan class="uuid-fcc70eed-ec64-4231-ace2-f8a673eb4676" x="75.79" y="0">x</tspan><tspan class="uuid-8080cac2-4a26-421c-85d9-d38349cebd68" x="90.64" y="0">.</tspan><tspan class="uuid-2ec88527-00fc-4aea-9769-f4be8728998c" x="94.8" y="0">y</tspan><tspan x="109.18" y="0">ml</tspan></text>
  </g>
  <g>
    <rect class="uuid-e1fa568a-f0c7-43c7-8cf9-909f53c8f198" x="582.27" y="65.93" width="93.46" height="45.9"/>
    <text class="uuid-22ae28e3-b260-4266-8c4f-2f7f866c0cd6" transform="translate(592.61 99.38)"><tspan class="uuid-e62a4fbd-eb58-4515-a518-eb60be00df6f" x="0" y="0">A</tspan><tspan class="uuid-08541c9b-3328-4884-9666-be3b33519e36" x="18.35" y="0">pp</tspan><tspan class="uuid-e62a4fbd-eb58-4515-a518-eb60be00df6f" x="50.9" y="0">l</tspan><tspan x="58.56" y="0">y</tspan></text>
  </g>
  <g>
    <rect class="uuid-e1fa568a-f0c7-43c7-8cf9-909f53c8f198" x="687.68" y="65.93" width="181.8" height="45.9"/>
    <text class="uuid-22ae28e3-b260-4266-8c4f-2f7f866c0cd6" transform="translate(699.4 99.38)"><tspan class="uuid-db80efe6-a35d-49b6-813f-3351de938a65" x="0" y="0">T</tspan><tspan class="uuid-cfd972d6-8591-48b5-abbd-2ce4e86c99de" x="13.08" y="0">e</tspan><tspan class="uuid-27f9ca35-e41f-4a4b-b18f-691054dc328f" x="28.58" y="0">s</tspan><tspan x="40.55" y="0">t conn</tspan><tspan class="uuid-7bc40aba-b0ea-430a-b444-34d46986144b" x="119.32" y="0">e</tspan><tspan class="uuid-2b5295f4-7198-4a6b-b15b-11dba5add4fa" x="134.54" y="0">c</tspan><tspan x="148.46" y="0">t</tspan></text>
  </g>
  <g>
    <rect class="uuid-e1fa568a-f0c7-43c7-8cf9-909f53c8f198" x="881.41" y="65.93" width="167.15" height="45.9"/>
    <text class="uuid-22ae28e3-b260-4266-8c4f-2f7f866c0cd6" transform="translate(893.13 99.38)"><tspan class="uuid-db80efe6-a35d-49b6-813f-3351de938a65" x="0" y="0">T</tspan><tspan class="uuid-cfd972d6-8591-48b5-abbd-2ce4e86c99de" x="13.08" y="0">e</tspan><tspan class="uuid-27f9ca35-e41f-4a4b-b18f-691054dc328f" x="28.58" y="0">s</tspan><tspan x="40.55" y="0">t subm</tspan><tspan class="uuid-27f9ca35-e41f-4a4b-b18f-691054dc328f" x="126.94" y="0">i</tspan><tspan x="134.17" y="0">t</tspan></text>
  </g>
  <g>
    <text class="uuid-4995b930-4190-4643-a6b9-88720094b0a4" transform="translate(425.39 158.76)"><tspan x="0" y="0">C</tspan><tspan class="uuid-5b467da6-1989-4a9b-8baf-2c581d218e4c" x="17.08" y="0">P</tspan><tspan class="uuid-9063a18a-a65e-4d8e-8bd8-cd9b64ca24aa" x="34.22" y="0">U</tspan><tspan class="uuid-dc642176-4cf0-439c-8476-e979d6044c86" x="53.88" y="0">s</tspan><tspan x="66.12" y="0">:</tspan></text>
    <g>
      <rect class="uuid-2f509cf0-0841-4df5-8bb5-cfdc8a02c9d7" x="503.07" y="126.62" width="66.94" height="45.9"/>
      <text class="uuid-4995b930-4190-4643-a6b9-88720094b0a4" transform="translate(515.7 160.07)"><tspan x="0" y="0">1</tspan></text>
    </g>
    <g>
      <rect class="uuid-5650bef9-92a9-4897-83f6-137a6f86247d" x="538.29" y="131" width="25.55" height="37.24"/>
      <g>
        <polyline class="uuid-4d994b16-8b08-4120-9a51-099996a740e1" points="543.18 154.49 551.07 163.79 558.95 154.49"/>
        <polyline class="uuid-4d994b16-8b08-4120-9a51-099996a740e1" points="558.95 144.74 551.07 135.44 543.18 144.74"/>
      </g>
    </g>
  </g>
  <g>
    <text class="uuid-4995b930-4190-4643-a6b9-88720094b0a4" transform="translate(600.64 158.76)"><tspan x="0" y="0">R</tspan><tspan class="uuid-b6eaa439-8b36-4c7c-9922-25916f6726c1" x="17.48" y="0">A</tspan><tspan class="uuid-75c44db3-5f01-4755-9bc0-a65a90a5fa6b" x="35.4" y="0">M</tspan><tspan x="61.29" y="0">:</tspan></text>
    <g>
      <rect class="uuid-2f509cf0-0841-4df5-8bb5-cfdc8a02c9d7" x="672.65" y="126.62" width="134.77" height="45.9"/>
      <text class="uuid-0dfdc62a-4706-419e-8c45-f75d30d1bf2b" transform="translate(686.77 160.07)"><tspan class="uuid-e3653a48-21bf-45ed-b446-5f6911799b40" x="0" y="0">16</tspan><tspan class="uuid-8fd4f906-ff3a-433f-a826-2aabe6d22481" x="26.26" y="0">.</tspan><tspan class="uuid-5cb5b1e9-a54a-4753-aaf4-fb59cd78457d" x="32.39" y="0">2</tspan><tspan class="uuid-e3653a48-21bf-45ed-b446-5f6911799b40" x="47.34" y="0">5 </tspan><tspan class="uuid-5e1e3601-7bf2-41bc-9876-e2c79e479514" x="69.38" y="0">G</tspan><tspan class="uuid-a7f88a2a-e5d4-40cb-92e2-0c33b3b55283" x="89.34" y="0">B</tspan></text>
    </g>
  </g>
  <g>
    <text class="uuid-4995b930-4190-4643-a6b9-88720094b0a4" transform="translate(838.12 158.76)"><tspan class="uuid-cdc16c71-f30f-46a5-a4bb-a04205ccee2a" x="0" y="0">T</tspan><tspan class="uuid-123f222c-186e-4dfa-b3a5-d4e65ac829bf" x="15.84" y="0">im</tspan><tspan class="uuid-086344cf-8226-435b-973e-35ff25b2534f" x="48.61" y="0">e</tspan><tspan class="uuid-123f222c-186e-4dfa-b3a5-d4e65ac829bf" x="63.67" y="0">:</tspan></text>
    <g>
      <rect class="uuid-2f509cf0-0841-4df5-8bb5-cfdc8a02c9d7" x="914.21" y="126.62" width="134.35" height="45.9"/>
      <text class="uuid-4995b930-4190-4643-a6b9-88720094b0a4" transform="translate(928.55 160.07)"><tspan x="0" y="0">01:00:00</tspan></text>
    </g>
  </g>
  <g>
    <rect class="uuid-2f509cf0-0841-4df5-8bb5-cfdc8a02c9d7" x="469.11" y="65.93" width="44.64" height="45.9"/>
    <g>
      <path class="uuid-85bb7359-1e1d-4256-95ac-59d80fcb1b63" d="M505.77,78.07l-3.19-3.19c-.19-.19-.56-.34-.83-.34h-21.31v1.94h-1.94v-1.94h-.97c-.27,0-.48.22-.48.48v28.09c0,.27.22.48.48.48h28.09c.27,0,.48-.22.48-.48v-24.22c0-.27-.15-.64-.34-.83Z"/>
      <path class="uuid-d0b9c0fd-43ac-48da-b6cd-0d4204cb69e6" d="M481.89,103.6v-13.56c0-.53.44-.97.97-.97h17.44c.53,0,.97.44.97.97v13.56h-19.38Z"/>
      <path class="uuid-1cb71caf-cbc9-4115-a320-30fd96cacc7d" d="M484.8,74.54v9.69c0,.53.44.97.97.97h14.53c.53,0,.97-.44.97-.97v-9.69h-16.47Z"/>
      <rect class="uuid-85bb7359-1e1d-4256-95ac-59d80fcb1b63" x="493.52" y="76.47" width="4.84" height="7.75"/>
      <rect class="uuid-d0b9c0fd-43ac-48da-b6cd-0d4204cb69e6" x="502.72" y="100.21" width="1.94" height="1.94" rx=".48" ry=".48"/>
      <rect class="uuid-9107dc83-030c-4a8e-9da4-71d30fbfb5d8" x="481.89" y="99.72" width="19.38" height="3.88"/>
      <rect class="uuid-9107dc83-030c-4a8e-9da4-71d30fbfb5d8" x="484.31" y="91.01" width="14.53" height=".97"/>
      <rect class="uuid-9107dc83-030c-4a8e-9da4-71d30fbfb5d8" x="484.31" y="93.91" width="14.53" height=".97"/>
      <rect class="uuid-9107dc83-030c-4a8e-9da4-71d30fbfb5d8" x="484.31" y="96.82" width="14.53" height=".97"/>
    </g>
  </g>
  <g>
    <rect class="uuid-2f509cf0-0841-4df5-8bb5-cfdc8a02c9d7" x="525.69" y="65.93" width="44.64" height="45.9"/>
    <g>
      <path class="uuid-dc0b4d0c-541e-47ee-a87b-025e93937f13" d="M556.51,73.65l-10.8,4.14s-.39-.95-.75-1.53c-.84-1.33-2.27-.92-2.27-.92l-8.23,2.96s-1.14.53-1.6,1.92c-.46,1.37,0,3.05,0,3.05l4.76,21.3,18.9-18.19s.63-8.12,1.01-11.88c.13-1.32-1.01-.85-1.01-.85Z"/>
      <path class="uuid-6314f455-4e7b-4a31-8ab9-659dc64f1b8c" d="M537.62,104.57l20.68-16.16s5.15-10.38,5.33-11.13c.21-.89-.67-.59-.67-.59l-11.04,5.16s-.66,2.92-1.98,3.68c-1.45.84-8.23,4.53-8.23,4.53,0,0-.97.64-1.52,1.66-.53.98-2.55,12.85-2.55,12.85Z"/>
    </g>
  </g>
  <path class="uuid-d0b9c0fd-43ac-48da-b6cd-0d4204cb69e6" d="M1013,27.12h21.46c.22,0,.31.04.31.31v3.24c0,.27-.09.36-.31.36h-21.46c-.23,0-.32-.09-.32-.4v-3.15c0-.31.09-.36.32-.36Z"/>
  <g>
    <text class="uuid-4995b930-4190-4643-a6b9-88720094b0a4" transform="translate(847.53 239.63)"><tspan class="uuid-b4318ce0-6531-4b69-92b1-2b056169f9fb" x="0" y="0">C</tspan><tspan x="16.9" y="0">lone e</tspan><tspan class="uuid-2c278559-cac1-4d54-8a4b-afba08b814b8" x="94.33" y="0">n</tspan><tspan class="uuid-cb519641-a1bc-43c4-a0de-c6b5ee0805d5" x="110.76" y="0">v</tspan><tspan x="125.8" y="0">:</tspan></text>
    <g>
      <rect class="uuid-2f509cf0-0841-4df5-8bb5-cfdc8a02c9d7" x="990.11" y="207.48" width="50.92" height="45.9"/>
      <path class="uuid-e3653a48-21bf-45ed-b446-5f6911799b40" d="M1001.71,233l2.52-1.71c2.47,3.69,4.54,7.87,5.94,11.92h.18c3.2-10.71,9.63-21.69,16.65-28.62l2.43,2.25c-7.06,6.61-13.63,16.83-17.01,28.98l-3.92.45c-1.8-4.95-3.96-9.18-6.79-13.27Z"/>
    </g>
  </g>
  <g>
    <polyline class="uuid-f3f22255-2999-4d98-abc3-4ab5612b6450" points="441.83 297.11 454.01 311.46 466.19 297.11"/>
    <g>
      <rect class="uuid-e1fa568a-f0c7-43c7-8cf9-909f53c8f198" x="492.83" y="281.33" width="48.29" height="45.9"/>
      <path class="uuid-d0b9c0fd-43ac-48da-b6cd-0d4204cb69e6" d="M518.77,292.8c.18,0,.27.09.27.36v9.13h8.81c.23,0,.27.09.27.36v3.22c0,.27-.09.36-.32.36h-8.76v9.26c0,.23-.09.27-.32.27h-3.5c-.23,0-.27-.09-.27-.27v-9.26h-8.76c-.23,0-.36-.09-.36-.36v-3.31c0-.18.14-.27.32-.27h8.81v-9.22c0-.18.09-.27.27-.27h3.54Z"/>
    </g>
    <rect class="uuid-e1fa568a-f0c7-43c7-8cf9-909f53c8f198" x="551.29" y="281.33" width="48.29" height="45.9"/>
    <path class="uuid-d0b9c0fd-43ac-48da-b6cd-0d4204cb69e6" d="M564.7,302.33h21.46c.22,0,.31.04.31.31v3.24c0,.27-.09.36-.31.36h-21.46c-.23,0-.32-.09-.32-.4v-3.15c0-.31.09-.36.32-.36Z"/>
  </g>
  <text class="uuid-4995b930-4190-4643-a6b9-88720094b0a4" transform="translate(622.57 313.66)"><tspan class="uuid-9063a18a-a65e-4d8e-8bd8-cd9b64ca24aa" x="0" y="0">M</tspan><tspan class="uuid-27f9ca35-e41f-4a4b-b18f-691054dc328f" x="25.45" y="0">o</tspan><tspan class="uuid-b6eaa439-8b36-4c7c-9922-25916f6726c1" x="42.04" y="0">d</tspan><tspan x="58.03" y="0">ul</tspan><tspan class="uuid-cfd972d6-8591-48b5-abbd-2ce4e86c99de" x="81.87" y="0">e</tspan><tspan class="uuid-dc642176-4cf0-439c-8476-e979d6044c86" x="97.37" y="0">s</tspan><tspan class="uuid-123f222c-186e-4dfa-b3a5-d4e65ac829bf" x="109.61" y="0">:</tspan></text>
  <g>
    <rect class="uuid-2f509cf0-0841-4df5-8bb5-cfdc8a02c9d7" x="748.53" y="281.52" width="170.56" height="45.9"/>
    <g>
      <polyline class="uuid-f3f22255-2999-4d98-abc3-4ab5612b6450" points="881.92 297.11 894.1 311.46 906.28 297.11"/>
      <g>
        <rect class="uuid-e1fa568a-f0c7-43c7-8cf9-909f53c8f198" x="932.92" y="281.33" width="48.29" height="45.9"/>
        <path class="uuid-d0b9c0fd-43ac-48da-b6cd-0d4204cb69e6" d="M958.86,292.8c.18,0,.27.09.27.36v9.13h8.81c.23,0,.27.09.27.36v3.22c0,.27-.09.36-.32.36h-8.76v9.26c0,.23-.09.27-.32.27h-3.5c-.23,0-.27-.09-.27-.27v-9.26h-8.76c-.23,0-.36-.09-.36-.36v-3.31c0-.18.14-.27.32-.27h8.81v-9.22c0-.18.09-.27.27-.27h3.54Z"/>
        <rect class="uuid-e1fa568a-f0c7-43c7-8cf9-909f53c8f198" x="991.38" y="281.33" width="48.29" height="45.9"/>
        <path class="uuid-d0b9c0fd-43ac-48da-b6cd-0d4204cb69e6" d="M1004.79,302.33h21.46c.22,0,.31.04.31.31v3.24c0,.27-.09.36-.31.36h-21.46c-.23,0-.32-.09-.32-.4v-3.15c0-.31.09-.36.32-.36Z"/>
      </g>
    </g>
    <text class="uuid-3412062f-67ca-4ff2-a249-d1df39036d7d" transform="translate(761.16 314.97)"><tspan x="0" y="0">m</tspan><tspan class="uuid-27f9ca35-e41f-4a4b-b18f-691054dc328f" x="25.79" y="0">o</tspan><tspan class="uuid-8569533c-10e2-4ec2-a39b-aad2187dd8f7" x="42.38" y="0">d</tspan><tspan class="uuid-08541c9b-3328-4884-9666-be3b33519e36" x="58.37" y="0">ule1</tspan></text>
  </g>
  <line class="uuid-8830bc31-9905-45b9-ba14-d485df95be9c" x1="1037.3" y1="490.66" x2="1017.33" y2="511.39"/>
  <line class="uuid-8830bc31-9905-45b9-ba14-d485df95be9c" x1="1036.92" y1="495.8" x2="1021.48" y2="511.61"/>
  <line class="uuid-8830bc31-9905-45b9-ba14-d485df95be9c" x1="1036.92" y1="500.57" x2="1026.49" y2="511.61"/>
  <line class="uuid-8830bc31-9905-45b9-ba14-d485df95be9c" x1="1036.57" y1="505.68" x2="1031.35" y2="511.12"/>
</svg>